<?xml version="1.0" encoding="UTF-8" standalone="no"?>
<!-- Created with Inkscape (http://www.inkscape.org/) -->

<svg
   xmlns:svg="http://www.w3.org/2000/svg"
   xmlns="http://www.w3.org/2000/svg"
   version="1.1"
   width="406"
   height="680"
   id="svg4099">
  <defs
     id="defs4101" />
  <g
     transform="translate(-243.53056,-114.15622)"
     id="layer1">
    <path
       d="m 272.15591,698.65364 0,93.875 20.15625,0 0,-93.875 -20.15625,0 z m 62.46875,0 0,93.875 20.15625,0 0,-38.34375 10.875,0 c 5.77927,0 8.3125,4.22273 8.3125,9.15625 l 0,15.375 c 0,8.73938 3.1057,14.375 11.28125,14.375 l 11.96875,0 0,-5.9375 c -2.53723,-2.25532 -3.9375,-5.19281 -3.9375,-9.5625 l 0,-15.375 c 0,-6.48406 -4.10504,-13.5266 -12.5625,-15.5 8.45746,-2.25533 12.125,-8.04454 12.125,-15.65625 l 0,-10.15625 c 0,-13.53193 -9.15157,-22.25 -24.375,-22.25 l -33.84375,0 z m 102.15625,0 0,93.875 18.03125,0 0,-66.53125 4.53125,21.28125 10.6875,45.25 15.09375,0 11.28125,-45.25 4.65625,-21.28125 0,66.53125 19.03125,0 0,-93.875 -26.9375,0 -11.125,47.78125 -3.53125,16.5 -3.375,-16.5 -11.28125,-47.78125 -27.0625,0 z m 141.1875,0 -22,93.875 18.90625,0 3.9375,-18.625 19.4375,0 3.96875,18.625 20.15625,0 -21.84375,-93.875 -22.5625,0 z m -223.1875,15.78125 11.4375,0 c 5.21544,0 7.1875,2.97339 7.1875,7.625 l 0,9.84375 c 0,5.6383 -2.81582,8.3125 -8.03125,8.3125 l -10.59375,0 0,-25.78125 z m 234.1875,10.28125 6.625,34.25 -13.8125,0 7.1875,-34.25 z m -283.09375,48.625 0,19.1875 15.5,0 0,-19.1875 -15.5,0 z m 102.125,0 0,19.1875 15.5,0 0,-19.1875 -15.5,0 z m 125.53125,0 0,19.1875 15.53125,0 0,-19.1875 -15.53125,0 z m 99.6875,0 0,19.1875 15.5,0 0,-19.1875 -15.5,0 z"
       id="path4123"
       style="font-size:140.95782471px;font-style:normal;font-variant:normal;font-weight:normal;font-stretch:normal;fill:#333333;fill-opacity:1;stroke:none;font-family:Knockout;-inkscape-font-specification:Knockout" />
    <path
       d="m 565.37256,115.23557 c -5.9789,0.26361 -11.5012,4.0379 -13.7188,9.99999 -2.0327,5.46526 -0.7678,11.36247 2.8125,15.46875 -8.0003,11.67177 -17.8454,23.22757 -29.25,34.625 -1.0556,-5.2639 -2.0367,-10.0812 -2.8125,-14 -0.3142,-0.6828 -2.315,-2.34675 -4.5625,-2.34375 -68.4407,0.10563 -129.6389,5.69594 -186.0312,22.59375 0.413,3.59722 0.8163,7.1842 1.1875,10.78125 -6.8473,-7.3247 -14.3728,-14.34099 -23.25,-20.625 0.01,-0.2305 0.031,-0.45446 0.031,-0.6875 0,-8.48152 -6.8622,-15.34375 -15.3437,-15.34375 -8.48156,0 -15.37504,6.86223 -15.37504,15.34375 0,8.48152 6.89348,15.375 15.37504,15.375 4.5573,0 8.6249,-2.00357 11.4375,-5.15625 11.1402,8.25897 20.1038,17.96272 28.7187,28.125 0,0.0526 0.027,0.10368 0.031,0.15625 l -5.7813,0.65625 c -2.7533,0.30312 -4.7406,2.77789 -4.4375,5.53126 l 6.0313,54.71875 c 0.3031,2.75336 2.7779,4.70937 5.5312,4.40625 l 4.7813,-0.53125 c 1.9883,17.31299 4.4912,34.62177 8.1875,51.9375 18.2909,-2.10633 36.585,-3.45266 54.875,-4.71875 l 0,11.28125 -79.2813,-4.25 c 0.5129,6.66574 1.1192,13.33452 1.75,20 -27.9865,30.23779 -48.84123,65.21849 -65.12499,104.9375 l 1.96875,1.125 c -9.27076,4.35018 -16.60058,14.43551 -18.375,27 -0.73916,5.23388 -0.44468,10.32521 0.71875,14.96875 l 8.75,-4.4375 c -0.14428,-1.74064 -0.13433,-3.53873 0.125,-5.375 1.54615,-10.94808 10.06236,-18.79788 19.03125,-17.53125 8.96889,1.26664 14.98364,11.17691 13.4375,22.125 -0.26725,1.89235 -0.72502,3.66861 -1.375,5.34375 l 7.81254,7.71875 c 2.7142,-4.35584 4.6388,-9.5325 5.4375,-15.1875 0.7334,-5.19342 0.419,-10.22611 -0.7188,-14.84375 l 2.4375,1.375 c 11.3151,-24.64661 19.7783,-48.23164 31.7188,-67.5 2.1708,25.07759 3.4987,50.17024 2.1562,75.25 -19.7171,31.27694 -32.4648,69.54116 -44.78124,108.21875 l 2.03124,-0.0937 c 5.1524,-8.90391 13.7185,-13.72194 20.6875,-11.03125 3.6041,1.39149 6.1588,4.56383 7.5,8.6875 3.5871,-5.1991 8.6124,-8.22209 13.75,-7.53125 3.87,0.52037 7.1394,3.07932 9.4063,6.84375 3.6077,-6.2904 9.1701,-10.11085 14.875,-9.34375 0.3516,0.0473 0.6898,0.10749 1.0312,0.1875 l -19.0625,78.46875 87.7188,-4.59375 c -2.7839,-27.38601 3.611,-52.50096 11.5,-77.21875 2.6304,1.97524 4.9038,4.92389 6.5625,8.53125 l 0.094,0 c 1.9491,-7.39465 6.6617,-12.73645 12.625,-13.3125 5.8574,-0.56581 11.4314,3.60781 14.7813,10.28125 0.1454,-0.77005 0.3299,-1.51857 0.5312,-2.25 0.9367,24.62776 0.5699,49.24725 -6.0937,73.875 l 89.7812,-5.3125 -15.5312,-83.0625 c 6.4117,-0.25401 12.3838,5.13335 15.375,13.15625 1.9833,-7.28343 6.6884,-12.55454 12.5937,-13.125 6.3376,-0.6122 12.3123,4.35529 15.5313,12 2.0966,-6.87981 6.6183,-11.7937 12.3125,-12.34375 1.6205,0.22782 4.8821,-0.55596 14.9375,10.65625 -12.5512,-29.32709 -23.6049,-59.39178 -43.3438,-85.125 -3.905,-21.24881 -5.4604,-42.4996 -6,-63.75 7.8584,11.97983 15.5715,24.98123 24.3125,38.21875 l 2.719,-2.1563 c -0.9107,4.80348 -0.8905,10.0201 0.2187,15.3125 1.1716,5.58964 3.4094,10.61483 6.4063,14.78125 l 7.3125,-8.21875 c -0.7596,-1.62839 -1.358,-3.37951 -1.75,-5.25 -2.2682,-10.82158 3.0722,-21.1106 11.9375,-22.96875 8.8652,-1.85814 17.8881,5.42843 20.1562,16.25 0.3805,1.81505 0.5286,3.59737 0.5,5.34375 l 9,3.875 c 0.8532,-4.71042 0.8344,-9.82659 -0.25,-15 -3.0004,-14.31529 -13.1514,-24.85561 -24.5937,-27 l 3.75,-2.96875 c -17.189,-28.52787 -36.6545,-53.81879 -59.5938,-75.6875 0.087,-13.09377 0.024,-26.18822 -0.4687,-39.28125 l -81.4375,9.5 0,-16.3125 c 19.2386,-2.47568 38.4792,-5.88394 57.7187,-11.03125 1.2041,-16.65568 0.2371,-35.46413 -1.75,-54.09375 l 3.5625,-0.375 c 2.7534,-0.30312 4.7094,-2.77789 4.4063,-5.53125 l -6.0313,-54.71876 c -0.3031,-2.75336 -2.7466,-4.74062 -5.5,-4.4375 l -4.1562,0.46875 c 13.1301,-12.81605 24.5046,-25.9146 33.6562,-39.40625 7.2117,1.35367 14.574,-2.63921 17.2188,-9.75 2.9567,-7.94947 -1.0818,-16.76204 -9.0313,-19.71874 -1.9873,-0.73917 -4.0383,-1.05662 -6.0312,-0.96875 z m -86.625,122.90625 c 6.2546,0 6.8849,4.08077 9.2812,6.40625 2.3964,-2.32546 3.3742,-6.40625 9.25,-6.40625 7.3507,0 13.3125,5.96188 13.3125,13.3125 -1.5614,11.98864 -15.3196,16.07544 -22.875,24.375 -5.5644,-9.0527 -22.0176,-13.92483 -22.2812,-24.375 0,-7.35062 5.9619,-13.3125 13.3125,-13.3125 z m -89.1875,4.21875 8.0625,16.21875 18.0937,1.03125 -12.9687,12.6875 4.625,17.5 -16.0625,-8.375 -15.2188,9.8125 3.0313,-17.875 -14.0625,-11.46875 17.9375,-2.65625 6.5625,-16.875 z m 88.5,121.25 c 11.3011,0.0362 22.6359,0.20225 34,0.5 0.031,8.2e-4 0.062,-8.2e-4 0.094,0 4.219,-0.0713 7.9992,2.71908 8.1563,6.65625 l 2.0312,50.4375 c 0.1584,3.96693 -3.4928,7.00971 -7.75,7.125 -44.4066,1.21689 -89.0835,2.40811 -134.8125,3.625 -4.2572,0.11534 -8.0916,-2.65808 -8.25,-6.625 l -2.0312,-50.4375 c -0.1571,-3.93546 3.4425,-6.93354 7.6562,-7.09375 l 0,-0.0312 c 0.031,-0.003 0.063,0.003 0.094,0 33.1875,-3.0952 66.8474,-4.2652 100.8125,-4.15625 z m -0.031,3.21875 c -33.9155,-0.10867 -67.47,1.06626 -100.5625,4.15625 l -0.062,0 -0.062,0 c -2.8371,0.0768 -4.6999,1.9044 -4.625,3.78125 l 2,50.4375 c 0.075,1.87686 2.1316,3.6394 4.9688,3.5625 45.7276,-1.21685 90.4062,-2.43936 134.8125,-3.65625 2.8372,-0.0768 4.6999,-1.90438 4.625,-3.78125 l -2,-50.4375 c -0.075,-1.87685 -2.1316,-3.6394 -4.9688,-3.5625 l -0.062,0 -0.031,0 c -11.3732,-0.29865 -22.7261,-0.4638 -34.0313,-0.5 z m 8.75,9.125 c 0.3507,-0.0178 0.7075,0 1.0625,0 11.3614,0 20.5938,9.2324 20.5938,20.59375 0,11.36136 -9.2324,20.59375 -20.5938,20.59375 -11.3613,0 -20.5937,-9.23239 -20.5937,-20.59375 0,-11.00631 8.6598,-20.04072 19.5312,-20.59375 z m 1.0625,3.1875 c -9.6254,0 -17.4062,7.78079 -17.4062,17.40625 0,9.62547 7.7808,17.40625 17.4062,17.40625 9.6255,0 17.4063,-7.78078 17.4063,-17.40625 0,-9.62546 -7.7808,-17.40625 -17.4063,-17.40625 z m -84.1562,1.84375 c 1.3643,-0.037 2.4864,0.84494 2.5312,1.96875 l 0.2188,5.25 c 0.045,1.12381 -1.0107,2.0568 -2.375,2.09375 l -0.8125,0.0312 1,25.625 -3.625,0.125 -1,-25.65625 -1.9688,0.0625 c -1.3643,0.037 -2.4864,-0.84494 -2.5312,-1.96875 l -0.2188,-5.25 c -0.045,-1.12381 1.0107,-2.0568 2.375,-2.09375 l 6.4063,-0.1875 z m 40.4375,4.46875 0.5937,15.40625 1.125,-0.0312 c 1.3643,-0.037 2.4864,0.84494 2.5313,1.96875 l 0.2187,5.28125 c 0.045,1.12381 -1.0107,2.0568 -2.375,2.09375 l -1.125,0.0312 0.1875,4.625 -3.625,0.15625 -0.1875,-4.6875 -1.6562,0.0312 c -1.3643,0.037 -2.4864,-0.81369 -2.5313,-1.9375 l -0.2187,-5.28125 c -0.045,-1.12381 1.0107,-2.0568 2.375,-2.09375 l 1.6562,-0.0625 -0.5937,-15.34375 3.625,-0.15625 z m 37.6562,0.1875 6,9.65625 9.125,-5.46875 1.875,3.125 -11.9062,7.15625 -0.5625,-0.96875 -0.2813,0.1875 -7.3437,-11.78125 3.0937,-1.90625 z m 8.5935,52.03125 c 1.9431,-0.0526 3.5611,1.18065 3.625,2.78125 l 0.3125,7.5 c 0.064,1.60061 -1.4631,2.94738 -3.4063,3 l -9.0937,0.25 c -1.9431,0.0526 -3.5611,-1.21189 -3.625,-2.8125 l -0.3125,-7.5 c -0.064,-1.6006 1.4631,-2.91613 3.4062,-2.96875 l 9.0938,-0.25 z m -41.3125,1.125 c 1.9431,-0.0526 3.5611,1.18065 3.625,2.78125 l 0.3125,7.5 c 0.064,1.60061 -1.4631,2.91613 -3.4063,2.96875 l -9.0937,0.25 c -1.9431,0.0526 -3.5611,-1.18064 -3.625,-2.78125 l -0.3125,-7.5 c -0.064,-1.6006 1.4631,-2.94738 3.4062,-3 l 9.0938,-0.21875 z m -41.3125,1.09375 c 1.9431,-0.0526 3.5611,1.2119 3.625,2.8125 l 0.3125,7.5 c 0.064,1.60061 -1.4631,2.91613 -3.4063,2.96875 l -9.0937,0.25 c -1.9431,0.0526 -3.5611,-1.18064 -3.625,-2.78125 l -0.3125,-7.5 c -0.064,-1.6006 1.4631,-2.94738 3.4062,-3 l 9.0938,-0.25 z"
       id="path3925"
       style="fill:#333333;fill-opacity:1;stroke:none" />
  </g>
</svg>
